<svg id="Mailbox" height="512" viewBox="0 0 512 512" width="512" xmlns="http://www.w3.org/2000/svg"><g fill="#57a4ff"><path d="m88 304h80v24h-80z"/><path d="m384 136h-256a64 64 0 0 1 64 64v160h256v-160a64 64 0 0 0 -64-64zm-72 136a24 24 0 1 1 24-24 24.006 24.006 0 0 1 -24 24z"/><path d="m208 440h80v32h-80z"/><path d="m88 304h80v24h-80z"/></g><path d="m464 464h-168v-24a8 8 0 0 0 -8-8h-16v-64h176a8 8 0 0 0 8-8v-160a72.081 72.081 0 0 0 -72-72h-64v-48a8 8 0 0 0 -16 0v48h-176a72.081 72.081 0 0 0 -72 72v160a8 8 0 0 0 8 8h160v64h-16a8 8 0 0 0 -8 8v24h-184a8 8 0 0 0 0 16h448a8 8 0 0 0 0-16zm-160-320v73.013a32 32 0 1 0 16 0v-73.013h64a56.064 56.064 0 0 1 56 56v152h-240v-152a71.883 71.883 0 0 0 -26.815-56zm8 112a8 8 0 0 0 8-8v-13.835a16 16 0 1 1 -16 0v13.835a8 8 0 0 0 8 8zm-240-56a56 56 0 0 1 112 0v152h-112zm168 168h16v64h-16zm-24 96v-16h64v16z" fill="#004fac"/><path d="m496 464h-8a8 8 0 0 0 0 16h8a8 8 0 0 0 0-16z" fill="#004fac"/><path d="m168 296h-80a8 8 0 0 0 -8 8v24a8 8 0 0 0 8 8h80a8 8 0 0 0 8-8v-24a8 8 0 0 0 -8-8zm-8 24h-64v-8h64z" fill="#004fac"/></svg>