<svg width="511" height="693" viewBox="0 0 511 693" fill="none" xmlns="http://www.w3.org/2000/svg">
<g clip-path="url(#clip0)">
<path d="M465.675 280.163C465.675 407.652 362.315 511 234.83 511C203.555 511 173.742 504.782 146.549 493.511C72.2259 462.724 17.4814 394.229 6.16372 311.89C4.72513 301.519 3.99219 290.927 3.99219 280.163C3.99219 152.666 107.341 49.3176 234.83 49.3176C362.315 49.3176 465.675 152.666 465.675 280.163Z" fill="#937DE2"/>
<path d="M234.83 49.3176C222.623 49.3176 210.643 50.2728 198.951 52.0973C309.403 69.3332 393.921 164.869 393.921 280.163C393.921 395.441 309.41 490.973 198.966 508.217C210.654 510.041 222.627 511 234.826 511C362.315 511 465.675 407.652 465.675 280.163C465.675 152.666 362.315 49.3176 234.83 49.3176Z" fill="#7570D6"/>
<path d="M494.493 263.098L362.677 350.385C353.285 356.607 341.909 359.075 330.79 357.297C319.644 355.523 308.241 357.956 298.825 364.19L281.184 375.882L182.393 230.256L206.631 125.547C208.514 117.395 209.446 109.134 209.446 100.904C209.446 79.6137 203.22 58.6001 191.278 40.5612C188.342 36.1246 186.939 31.1071 186.939 26.1519C186.939 17.6841 191.048 9.37614 198.643 4.34692C208.876 -2.43278 222.44 -1.17353 231.251 7.37225L246.954 22.5808C264.911 40.0037 278.763 61.2161 287.461 84.678L295.976 107.602L383.659 49.6684C397.663 40.3975 416.607 44.452 425.55 58.7951C434.174 72.6118 429.745 90.869 416.158 99.8632C415.995 99.9723 415.983 100.148 416.037 100.28C416.115 100.425 416.279 100.522 416.462 100.444C419.928 99.1107 423.554 98.4635 427.149 98.4635C432.887 98.4635 438.575 100.117 443.441 103.263C446.794 105.43 449.764 108.311 452.108 111.851C456.634 118.69 457.983 126.709 456.501 134.163C454.178 145.906 445.644 151.957 443.967 153.095C443.683 153.294 443.605 153.688 443.803 153.984C443.803 153.992 443.815 154.003 443.823 154.003C444.01 154.268 444.392 154.342 444.665 154.171C447.055 153.59 449.488 153.313 451.92 153.313C457.858 153.313 463.764 155.001 468.786 158.202C472.182 160.374 475.183 163.243 477.507 166.76C486.622 180.522 482.856 199.071 469.078 208.19C468.739 208.42 468.4 208.65 468.061 208.869C467.866 209.025 467.807 209.274 467.909 209.45C467.928 209.492 467.975 209.539 468.018 209.559C468.17 209.68 468.412 209.691 468.61 209.539C477.168 206.623 486.482 207.949 493.975 212.802C497.425 215.017 500.486 217.999 502.907 221.656C512.025 235.43 508.255 253.98 494.493 263.098Z" fill="#FDD7BD"/>
<path d="M282.443 403.519L226.833 440.346L146.549 493.511C72.2257 462.72 17.4813 394.237 6.16357 311.89L99.3328 250.19L156.05 212.627C162.58 208.3 171.391 210.097 175.719 216.639L286.455 383.839C290.782 390.381 288.985 399.176 282.443 403.519Z" fill="#87DBFF"/>
<path d="M282.443 403.519L226.834 440.346L99.333 250.19L156.05 212.627C162.58 208.3 171.391 210.097 175.719 216.639L286.455 383.835C290.783 390.381 288.985 399.176 282.443 403.519Z" fill="#6FC7FF"/>
<path d="M443.441 103.259L399.577 126.733C393.355 130.054 385.64 128.319 381.457 122.655L416.037 100.28C416.115 100.425 416.279 100.522 416.462 100.444C419.928 99.1108 423.554 98.4636 427.148 98.4636C432.891 98.4636 438.575 100.117 443.441 103.259Z" fill="#FAC5AA"/>
<path d="M468.786 158.202L425.878 181.145C419.655 184.479 411.94 182.748 407.753 177.083L442.334 154.705L443.827 154.003C444.014 154.268 444.396 154.342 444.669 154.171C447.059 153.59 449.492 153.313 451.924 153.313C457.862 153.313 463.768 155.001 468.786 158.202Z" fill="#FAC5AA"/>
<path d="M493.978 212.802L456.185 233.021C449.971 236.338 442.259 234.607 438.061 228.943L468.018 209.559C468.174 209.68 468.415 209.691 468.61 209.535C477.168 206.623 486.481 207.949 493.978 212.802Z" fill="#FAC5AA"/>
</g>
<path d="M349.472 670H346.64V640.144H350.24L355.376 659.344L360.56 640.144H364.16V670H361.328V647.392L357.152 663.52H353.648L349.472 647.392V670ZM379.213 670L377.965 662.416H371.917L370.813 670H367.501L372.157 640.144H377.389L382.525 670H379.213ZM372.301 659.584H377.533L374.749 642.448L372.301 659.584ZM386.354 640.144H389.618V670H386.354V640.144ZM398.654 667.168H405.518V670H395.39V640.144H398.654V667.168Z" fill="#7570D6"/>
<path d="M149.92 534.856V545.368H134.8V625H121.84V545.368H106.72V534.856H149.92ZM191.186 625L187.586 604.12H168.578L165.266 625H152.306L168.29 534.856H187.154L204.29 625H191.186ZM170.162 593.608H185.858L177.65 546.088L170.162 593.608ZM226.432 614.488H248.752V625H213.472V534.856H226.432V614.488ZM303.153 534.856L284.145 580.072L303.009 625H288.897L270.609 580.072L289.185 534.856H303.153ZM256.785 625V534.856H269.745V625H256.785ZM325.155 614.488H351.219V625H312.051V534.856H350.211V545.368H325.155V573.16H345.891V583.672H325.155V614.488ZM386.898 625H373.794V596.488L354.498 534.856H367.746L380.274 584.536L392.082 534.856H405.33L386.898 596.488V625Z" fill="#937DE2"/>
<defs>
<clipPath id="clip0">
<rect width="511" height="511" fill="white"/>
</clipPath>
</defs>
</svg>
